<svg width="17" height="17" viewBox="0 0 17 17" fill="none" xmlns="http://www.w3.org/2000/svg">
<g clip-path="url(#clip0)">
<path d="M16.7923 5.21693L11.7836 0.208217C11.507 -0.0684036 11.0584 -0.0684036 10.7818 0.208217L8.77865 2.21143C8.50203 2.48805 8.50203 2.93657 8.77865 3.21319L9.2792 3.71373L5.60162 7.39131C4.02176 6.63692 2.07274 6.91374 0.764777 8.22237C0.488257 8.49902 0.488323 8.94741 0.76491 9.22399L3.77087 12.23C3.7636 12.2366 3.756 12.2427 3.74896 12.2497L0.207221 15.7915C-0.0693991 16.0681 -0.0693991 16.5166 0.207221 16.7932C0.483841 17.0699 0.932356 17.0699 1.20898 16.7932L4.75071 13.2515C4.75775 13.2445 4.76383 13.2369 4.7705 13.2296L7.7768 16.2359C8.05342 16.5125 8.50193 16.5125 8.77855 16.2359C10.0873 14.9272 10.3639 12.9781 9.60911 11.3983L13.2864 7.72099L13.7873 8.2219C14.0639 8.49852 14.5125 8.49852 14.7891 8.2219L16.7923 6.21869C17.0689 5.94207 17.0689 5.49359 16.7923 5.21693ZM8.21462 14.6702L2.33053 8.7861C3.41682 8.14427 4.83983 8.2902 5.77362 9.22399L7.77683 11.2272C8.71062 12.161 8.85658 13.5836 8.21462 14.6702ZM8.77858 10.2254L6.77484 8.22164L10.281 4.71552L12.2847 6.7193L8.77858 10.2254ZM14.2882 6.71927L13.788 6.21906C13.7878 6.21882 13.7876 6.21856 13.7874 6.21832L10.7819 3.21282C10.7816 3.21259 10.7814 3.21239 10.7811 3.21216L10.2813 2.71231L11.2827 1.71085L15.2897 5.71781L14.2882 6.71927Z" fill="#E2E2E2"/>
</g>
<defs>
<clipPath id="clip0">
<rect width="17" height="17" fill="white"/>
</clipPath>
</defs>
</svg>
