<svg width="17" height="17" viewBox="0 0 17 17" fill="none" xmlns="http://www.w3.org/2000/svg">
<path d="M2.04186 9.28391C2.00905 9.0105 1.99219 8.73891 1.99219 8.5C1.99219 4.93391 4.93391 1.99219 8.5 1.99219C10.1634 1.99219 11.7207 2.66286 12.8662 3.70876L12.2918 4.29319C12.1623 4.42263 12.1125 4.61186 12.1623 4.79124C12.2221 4.9605 12.3615 5.09006 12.5408 5.12988C12.6411 5.14999 15.9346 6.21132 15.7249 6.16917C15.9917 6.25801 16.3863 5.97345 16.3127 5.5815C16.2925 5.48111 15.5633 1.82241 15.6055 2.03201C15.5656 1.85276 15.4361 1.70335 15.2568 1.65354C15.0876 1.60374 14.8982 1.65354 14.7688 1.78298L14.2807 2.26105C12.7766 0.856667 10.7112 0 8.5 0C3.82835 0 0 3.82835 0 8.5V8.51984C0 8.80064 0.0128403 9.01763 0.0277558 9.18365C0.0475998 9.40362 0.209724 9.58377 0.426323 9.62722L1.44952 9.83176C1.78259 9.89842 2.08207 9.61918 2.04186 9.28391V9.28391Z" fill="#E2E2E2"/>
<path d="M16.5767 7.372L15.5505 7.16292C15.217 7.09496 14.9155 7.37446 14.9565 7.71129C14.992 8.00195 15.0078 8.28457 15.0078 8.5C15.0078 12.066 12.0661 15.0078 8.5 15.0078C6.8366 15.0078 5.2793 14.3371 4.13379 13.2812L4.70823 12.7068C4.83767 12.5774 4.88748 12.3881 4.83767 12.2088C4.77788 12.0394 4.63845 11.9099 4.45921 11.8701C4.35895 11.8499 1.06535 10.7887 1.27508 10.8308C1.10569 10.801 0.936303 10.8508 0.826837 10.9703C0.707254 11.0799 0.657449 11.2591 0.68728 11.4185C0.707513 11.5188 1.43681 15.1443 1.39466 14.9347C1.43435 15.114 1.56392 15.2634 1.74317 15.3131C1.95107 15.3653 2.12461 15.3022 2.23123 15.1837L2.70943 14.7056C4.21343 16.1101 6.27876 17 8.5 17C13.1717 17 17 13.1717 17 8.5V8.47004C17 8.24929 16.992 8.03256 16.9735 7.81713C16.9546 7.59703 16.7931 7.41623 16.5767 7.372Z" fill="#E2E2E2"/>
</svg>
